<svg xmlns="http://www.w3.org/2000/svg" width="780" height="470" font-family="-apple-system,Segoe UI,Helvetica,Arial,sans-serif">
<rect width="780" height="470" fill="#ffffff"/>
<text x="70" y="26" font-size="17" font-weight="700" fill="#1a1a1a">Redis fork 延迟对比:async-fork off vs on</text>
<text x="70" y="43" font-size="11" fill="#888">latest_fork_usec median (round 2~10) · 线性纵轴 (ms) · 阿里云 alinux 6.6.102 / Redis 7.2.14</text>
<line x1="70" y1="410.0" x2="630" y2="410.0" stroke="#eee"/>
<text x="62" y="413.0" font-size="10" fill="#999" text-anchor="end">0</text>
<line x1="70" y1="350.7" x2="630" y2="350.7" stroke="#eee"/>
<text x="62" y="353.7" font-size="10" fill="#999" text-anchor="end">50</text>
<line x1="70" y1="291.3" x2="630" y2="291.3" stroke="#eee"/>
<text x="62" y="294.3" font-size="10" fill="#999" text-anchor="end">100</text>
<line x1="70" y1="232.0" x2="630" y2="232.0" stroke="#eee"/>
<text x="62" y="235.0" font-size="10" fill="#999" text-anchor="end">150</text>
<line x1="70" y1="172.7" x2="630" y2="172.7" stroke="#eee"/>
<text x="62" y="175.7" font-size="10" fill="#999" text-anchor="end">200</text>
<line x1="70" y1="113.3" x2="630" y2="113.3" stroke="#eee"/>
<text x="62" y="116.3" font-size="10" fill="#999" text-anchor="end">250</text>
<line x1="70" y1="54.0" x2="630" y2="54.0" stroke="#eee"/>
<text x="62" y="57.0" font-size="10" fill="#999" text-anchor="end">300</text>
<text x="18" y="232" font-size="11" fill="#666" text-anchor="middle" transform="rotate(-90 18 232)">fork 延迟 (ms)</text>
<line x1="70" y1="54" x2="70" y2="410" stroke="#999"/>
<line x1="70" y1="410" x2="630" y2="410" stroke="#999"/>
<rect x="85.9" y="400.0" width="28.0" height="10.0" fill="#e4572e" rx="1.5"/>
<text x="99.9" y="394.0" font-size="10" fill="#e4572e" text-anchor="middle">8.4</text>
<rect x="119.5" y="408.8" width="28.0" height="1.2" fill="#2e7de4" rx="1.5"/>
<text x="133.5" y="404.0" font-size="9" fill="#2e7de4" text-anchor="middle">0.22</text>
<text x="116.7" y="430.0" font-size="11" fill="#555" text-anchor="middle">1G</text>
<text x="116.7" y="380.0" font-size="9.5" font-weight="600" fill="#3a9d3a" text-anchor="middle">↓97.4%</text>
<rect x="179.2" y="343.9" width="28.0" height="66.1" fill="#e4572e" rx="1.5"/>
<text x="193.2" y="337.9" font-size="10" fill="#e4572e" text-anchor="middle">55.7</text>
<rect x="212.8" y="408.8" width="28.0" height="1.2" fill="#2e7de4" rx="1.5"/>
<text x="226.8" y="404.0" font-size="9" fill="#2e7de4" text-anchor="middle">0.29</text>
<text x="210.0" y="430.0" font-size="11" fill="#555" text-anchor="middle">10G</text>
<text x="210.0" y="323.9" font-size="9.5" font-weight="600" fill="#3a9d3a" text-anchor="middle">↓99.5%</text>
<rect x="272.5" y="278.1" width="28.0" height="131.9" fill="#e4572e" rx="1.5"/>
<text x="286.5" y="272.1" font-size="10" fill="#e4572e" text-anchor="middle">111.2</text>
<rect x="306.1" y="408.8" width="28.0" height="1.2" fill="#2e7de4" rx="1.5"/>
<text x="320.1" y="404.0" font-size="9" fill="#2e7de4" text-anchor="middle">0.32</text>
<text x="303.3" y="430.0" font-size="11" fill="#555" text-anchor="middle">20G</text>
<text x="303.3" y="258.1" font-size="9.5" font-weight="600" fill="#3a9d3a" text-anchor="middle">↓99.7%</text>
<rect x="365.9" y="210.0" width="28.0" height="200.0" fill="#e4572e" rx="1.5"/>
<text x="379.9" y="204.0" font-size="10" fill="#e4572e" text-anchor="middle">168.6</text>
<rect x="399.5" y="408.8" width="28.0" height="1.2" fill="#2e7de4" rx="1.5"/>
<text x="413.5" y="404.0" font-size="9" fill="#2e7de4" text-anchor="middle">0.38</text>
<text x="396.7" y="430.0" font-size="11" fill="#555" text-anchor="middle">30G</text>
<text x="396.7" y="190.0" font-size="9.5" font-weight="600" fill="#3a9d3a" text-anchor="middle">↓99.8%</text>
<rect x="459.2" y="146.6" width="28.0" height="263.4" fill="#e4572e" rx="1.5"/>
<text x="473.2" y="140.6" font-size="10" fill="#e4572e" text-anchor="middle">222.0</text>
<rect x="492.8" y="408.8" width="28.0" height="1.2" fill="#2e7de4" rx="1.5"/>
<text x="506.8" y="404.0" font-size="9" fill="#2e7de4" text-anchor="middle">0.43</text>
<text x="490.0" y="430.0" font-size="11" fill="#555" text-anchor="middle">40G</text>
<text x="490.0" y="126.6" font-size="9.5" font-weight="600" fill="#3a9d3a" text-anchor="middle">↓99.8%</text>
<rect x="552.5" y="77.9" width="28.0" height="332.1" fill="#e4572e" rx="1.5"/>
<text x="566.5" y="71.9" font-size="10" fill="#e4572e" text-anchor="middle">279.8</text>
<rect x="586.1" y="408.8" width="28.0" height="1.2" fill="#2e7de4" rx="1.5"/>
<text x="600.1" y="404.0" font-size="9" fill="#2e7de4" text-anchor="middle">0.46</text>
<text x="583.3" y="430.0" font-size="11" fill="#555" text-anchor="middle">50G</text>
<text x="583.3" y="57.9" font-size="9.5" font-weight="600" fill="#3a9d3a" text-anchor="middle">↓99.8%</text>
<text x="350" y="458" font-size="11" fill="#666" text-anchor="middle">数据集大小 (used_memory)</text>
<rect x="644" y="56" width="134" height="108" rx="6" fill="#fafafa" stroke="#e5e5e5"/>
<rect x="652" y="64" width="16" height="12" fill="#e4572e" rx="1.5"/>
<text x="676" y="74" font-size="11" fill="#333">async-fork off</text>
<rect x="652" y="88" width="16" height="12" fill="#2e7de4" rx="1.5"/>
<text x="676" y="98" font-size="11" fill="#333">async-fork on</text>
<line x1="644" y1="112" x2="778" y2="112" stroke="#eee"/>
<text x="652" y="130" font-size="10" fill="#3a9d3a">↓ = fork 延迟降幅</text>
<text x="652" y="147" font-size="10" fill="#666">on 柱近乎贴地,</text>
<text x="652" y="160" font-size="10" fill="#666">50G 仍仅 0.46 ms</text>
</svg>